<mxfile host="app.diagrams.net" modified="2024-07-06T06:20:41.898Z" agent="Mozilla/5.0 (Macintosh; Intel Mac OS X 10.15; rv:127.0) Gecko/20100101 Firefox/127.0" etag="L1K_WSg7vRakZQNs6GdQ" version="24.5.4" type="device">
  <diagram name="Page-1" id="DKx4Wx32LlKvb0dUIzhr">
    <mxGraphModel dx="920" dy="588" grid="1" gridSize="10" guides="1" tooltips="1" connect="1" arrows="1" fold="1" page="1" pageScale="1" pageWidth="850" pageHeight="1100" math="0" shadow="0">
      <root>
        <mxCell id="0" />
        <mxCell id="1" parent="0" />
        <mxCell id="oP2EAeOLTox49znbVoK7-28" value="" style="endArrow=none;dashed=1;html=1;dashPattern=1 3;strokeWidth=2;rounded=0;" parent="1" edge="1">
          <mxGeometry width="50" height="50" relative="1" as="geometry">
            <mxPoint x="60" y="799.5" as="sourcePoint" />
            <mxPoint x="660" y="799.5" as="targetPoint" />
          </mxGeometry>
        </mxCell>
        <mxCell id="oP2EAeOLTox49znbVoK7-27" value="" style="endArrow=none;dashed=1;html=1;dashPattern=1 3;strokeWidth=2;rounded=0;" parent="1" edge="1">
          <mxGeometry width="50" height="50" relative="1" as="geometry">
            <mxPoint x="60" y="699.5" as="sourcePoint" />
            <mxPoint x="660" y="699.5" as="targetPoint" />
          </mxGeometry>
        </mxCell>
        <mxCell id="oP2EAeOLTox49znbVoK7-25" value="" style="endArrow=none;dashed=1;html=1;dashPattern=1 3;strokeWidth=2;rounded=0;" parent="1" edge="1">
          <mxGeometry width="50" height="50" relative="1" as="geometry">
            <mxPoint x="60" y="600" as="sourcePoint" />
            <mxPoint x="660" y="600" as="targetPoint" />
          </mxGeometry>
        </mxCell>
        <mxCell id="oP2EAeOLTox49znbVoK7-9" value="" style="rounded=1;whiteSpace=wrap;html=1;" parent="1" vertex="1">
          <mxGeometry x="220" y="570" width="120" height="60" as="geometry" />
        </mxCell>
        <mxCell id="oP2EAeOLTox49znbVoK7-1" value="People detection" style="rounded=1;whiteSpace=wrap;html=1;" parent="1" vertex="1">
          <mxGeometry x="90" y="220" width="120" height="60" as="geometry" />
        </mxCell>
        <mxCell id="oP2EAeOLTox49znbVoK7-2" value="YOLOv9/10" style="text;html=1;align=center;verticalAlign=middle;resizable=0;points=[];autosize=1;strokeColor=none;fillColor=none;" parent="1" vertex="1">
          <mxGeometry x="105" y="288" width="90" height="30" as="geometry" />
        </mxCell>
        <mxCell id="oP2EAeOLTox49znbVoK7-3" value="Optical flow" style="rounded=1;whiteSpace=wrap;html=1;" parent="1" vertex="1">
          <mxGeometry x="270" y="160" width="120" height="60" as="geometry" />
        </mxCell>
        <mxCell id="JIedDysNqp9kFterwcME-3" style="edgeStyle=orthogonalEdgeStyle;rounded=0;orthogonalLoop=1;jettySize=auto;html=1;entryX=0;entryY=0.5;entryDx=0;entryDy=0;" parent="1" source="oP2EAeOLTox49znbVoK7-4" target="oP2EAeOLTox49znbVoK7-5" edge="1">
          <mxGeometry relative="1" as="geometry" />
        </mxCell>
        <mxCell id="oP2EAeOLTox49znbVoK7-4" value="Temporal difference" style="rounded=1;whiteSpace=wrap;html=1;" parent="1" vertex="1">
          <mxGeometry x="250" y="230" width="120" height="60" as="geometry" />
        </mxCell>
        <mxCell id="oP2EAeOLTox49znbVoK7-5" value="HOG" style="rounded=1;whiteSpace=wrap;html=1;" parent="1" vertex="1">
          <mxGeometry x="400" y="230" width="120" height="60" as="geometry" />
        </mxCell>
        <mxCell id="oP2EAeOLTox49znbVoK7-6" value="&lt;div&gt;Pose estimation&lt;/div&gt;" style="rounded=1;whiteSpace=wrap;html=1;" parent="1" vertex="1">
          <mxGeometry x="270" y="300" width="120" height="60" as="geometry" />
        </mxCell>
        <mxCell id="oP2EAeOLTox49znbVoK7-7" value="read video data from network conn" style="rounded=1;whiteSpace=wrap;html=1;" parent="1" vertex="1">
          <mxGeometry x="50" y="490" width="120" height="60" as="geometry" />
        </mxCell>
        <mxCell id="oP2EAeOLTox49znbVoK7-20" style="edgeStyle=orthogonalEdgeStyle;rounded=0;orthogonalLoop=1;jettySize=auto;html=1;entryX=0.5;entryY=0;entryDx=0;entryDy=0;" parent="1" source="oP2EAeOLTox49znbVoK7-8" target="oP2EAeOLTox49znbVoK7-19" edge="1">
          <mxGeometry relative="1" as="geometry" />
        </mxCell>
        <mxCell id="oP2EAeOLTox49znbVoK7-8" value="start buffering 5 seconds worth of frames" style="rounded=1;whiteSpace=wrap;html=1;" parent="1" vertex="1">
          <mxGeometry x="210" y="560" width="120" height="60" as="geometry" />
        </mxCell>
        <mxCell id="oP2EAeOLTox49znbVoK7-10" value="" style="rounded=1;whiteSpace=wrap;html=1;" parent="1" vertex="1">
          <mxGeometry x="435" y="570" width="120" height="60" as="geometry" />
        </mxCell>
        <mxCell id="oP2EAeOLTox49znbVoK7-11" value="start buffering" style="rounded=1;whiteSpace=wrap;html=1;" parent="1" vertex="1">
          <mxGeometry x="425" y="560" width="120" height="60" as="geometry" />
        </mxCell>
        <mxCell id="oP2EAeOLTox49znbVoK7-12" value="1 second&lt;br&gt;window" style="text;html=1;align=center;verticalAlign=middle;resizable=0;points=[];autosize=1;strokeColor=none;fillColor=none;" parent="1" vertex="1">
          <mxGeometry x="350" y="480" width="70" height="40" as="geometry" />
        </mxCell>
        <mxCell id="oP2EAeOLTox49znbVoK7-14" value="" style="endArrow=classic;html=1;rounded=0;exitX=1;exitY=0.5;exitDx=0;exitDy=0;" parent="1" source="oP2EAeOLTox49znbVoK7-7" edge="1">
          <mxGeometry width="50" height="50" relative="1" as="geometry">
            <mxPoint x="290" y="480" as="sourcePoint" />
            <mxPoint x="670" y="520" as="targetPoint" />
          </mxGeometry>
        </mxCell>
        <mxCell id="oP2EAeOLTox49znbVoK7-15" value="" style="endArrow=classic;html=1;rounded=0;entryX=0.5;entryY=0;entryDx=0;entryDy=0;" parent="1" target="oP2EAeOLTox49znbVoK7-8" edge="1">
          <mxGeometry width="50" height="50" relative="1" as="geometry">
            <mxPoint x="270" y="520" as="sourcePoint" />
            <mxPoint x="130" y="620" as="targetPoint" />
          </mxGeometry>
        </mxCell>
        <mxCell id="oP2EAeOLTox49znbVoK7-16" value="" style="endArrow=classic;html=1;rounded=0;entryX=0.5;entryY=0;entryDx=0;entryDy=0;" parent="1" target="oP2EAeOLTox49znbVoK7-11" edge="1">
          <mxGeometry width="50" height="50" relative="1" as="geometry">
            <mxPoint x="485" y="520" as="sourcePoint" />
            <mxPoint x="530" y="460" as="targetPoint" />
          </mxGeometry>
        </mxCell>
        <mxCell id="oP2EAeOLTox49znbVoK7-17" value="" style="endArrow=none;html=1;rounded=0;" parent="1" edge="1">
          <mxGeometry width="50" height="50" relative="1" as="geometry">
            <mxPoint x="270" y="520" as="sourcePoint" />
            <mxPoint x="270" y="480" as="targetPoint" />
          </mxGeometry>
        </mxCell>
        <mxCell id="oP2EAeOLTox49znbVoK7-18" value="" style="endArrow=none;html=1;rounded=0;" parent="1" edge="1">
          <mxGeometry width="50" height="50" relative="1" as="geometry">
            <mxPoint x="484.5" y="520" as="sourcePoint" />
            <mxPoint x="484.5" y="480" as="targetPoint" />
          </mxGeometry>
        </mxCell>
        <mxCell id="oP2EAeOLTox49znbVoK7-23" style="edgeStyle=orthogonalEdgeStyle;rounded=0;orthogonalLoop=1;jettySize=auto;html=1;entryX=0.5;entryY=0;entryDx=0;entryDy=0;curved=1;" parent="1" source="oP2EAeOLTox49znbVoK7-19" target="oP2EAeOLTox49znbVoK7-21" edge="1">
          <mxGeometry relative="1" as="geometry" />
        </mxCell>
        <mxCell id="oP2EAeOLTox49znbVoK7-19" value="Run feature extraction in parallel to buffering" style="rounded=1;whiteSpace=wrap;html=1;" parent="1" vertex="1">
          <mxGeometry x="210" y="670" width="120" height="60" as="geometry" />
        </mxCell>
        <mxCell id="oP2EAeOLTox49znbVoK7-21" value="Extract feature vectors and start analysis" style="rounded=1;whiteSpace=wrap;html=1;" parent="1" vertex="1">
          <mxGeometry x="260" y="770" width="120" height="60" as="geometry" />
        </mxCell>
        <mxCell id="oP2EAeOLTox49znbVoK7-24" value="Upper bound processing to ~20 seconds" style="text;whiteSpace=wrap;html=1;" parent="1" vertex="1">
          <mxGeometry x="207.5" y="840" width="225" height="40" as="geometry" />
        </mxCell>
        <mxCell id="oP2EAeOLTox49znbVoK7-29" value="&lt;div&gt;Each layer may be a separate python/cython/c++ process&lt;/div&gt;&lt;div&gt;&amp;nbsp;reading from and writing to FIFO files,&lt;/div&gt;&lt;div&gt;&amp;nbsp;to ensure performance and asynchronous (non-blocking) processing&lt;/div&gt;" style="text;html=1;align=center;verticalAlign=middle;resizable=0;points=[];autosize=1;strokeColor=none;fillColor=none;" parent="1" vertex="1">
          <mxGeometry x="560" y="620" width="390" height="60" as="geometry" />
        </mxCell>
        <mxCell id="oP2EAeOLTox49znbVoK7-30" value="LSTM NN" style="rounded=1;whiteSpace=wrap;html=1;" parent="1" vertex="1">
          <mxGeometry x="560" y="220" width="120" height="60" as="geometry" />
        </mxCell>
        <mxCell id="JIedDysNqp9kFterwcME-1" value="Activity detection" style="rounded=1;whiteSpace=wrap;html=1;" parent="1" vertex="1">
          <mxGeometry x="270" y="80" width="120" height="60" as="geometry" />
        </mxCell>
        <mxCell id="JIedDysNqp9kFterwcME-2" value="Human-object interaction" style="rounded=1;whiteSpace=wrap;html=1;" parent="1" vertex="1">
          <mxGeometry x="270" y="10" width="120" height="60" as="geometry" />
        </mxCell>
        <mxCell id="JIedDysNqp9kFterwcME-4" value="Context clues" style="rounded=1;whiteSpace=wrap;html=1;" parent="1" vertex="1">
          <mxGeometry x="560" y="100" width="120" height="60" as="geometry" />
        </mxCell>
        <mxCell id="JIedDysNqp9kFterwcME-6" value="&lt;div&gt;- Time and location&lt;/div&gt;- Behavior in relation to others (outlier)" style="text;html=1;align=center;verticalAlign=middle;resizable=0;points=[];autosize=1;strokeColor=none;fillColor=none;" parent="1" vertex="1">
          <mxGeometry x="680" y="100" width="230" height="40" as="geometry" />
        </mxCell>
        <mxCell id="JIedDysNqp9kFterwcME-7" value="Semantic scene segmentation" style="rounded=1;whiteSpace=wrap;html=1;" parent="1" vertex="1">
          <mxGeometry x="270" y="370" width="120" height="60" as="geometry" />
        </mxCell>
        <mxCell id="JIedDysNqp9kFterwcME-8" value="" style="endArrow=none;dashed=1;html=1;dashPattern=1 3;strokeWidth=2;rounded=0;" parent="1" edge="1">
          <mxGeometry width="50" height="50" relative="1" as="geometry">
            <mxPoint x="230" y="390" as="sourcePoint" />
            <mxPoint x="230" y="50" as="targetPoint" />
          </mxGeometry>
        </mxCell>
        <mxCell id="JIedDysNqp9kFterwcME-9" value="" style="endArrow=none;dashed=1;html=1;dashPattern=1 3;strokeWidth=2;rounded=0;" parent="1" edge="1">
          <mxGeometry width="50" height="50" relative="1" as="geometry">
            <mxPoint x="544" y="390" as="sourcePoint" />
            <mxPoint x="544" y="50" as="targetPoint" />
          </mxGeometry>
        </mxCell>
        <mxCell id="JIedDysNqp9kFterwcME-10" value="Sequence of activities (rapid change)" style="rounded=1;whiteSpace=wrap;html=1;" parent="1" vertex="1">
          <mxGeometry x="400" y="80" width="120" height="60" as="geometry" />
        </mxCell>
        <mxCell id="JIedDysNqp9kFterwcME-11" value="&lt;div&gt;Maybe the first 2 stages&lt;/div&gt;&lt;div&gt;can be merged as they represent&lt;/div&gt;&lt;div&gt;basically the same operations&lt;br&gt;&lt;/div&gt;" style="text;html=1;align=center;verticalAlign=middle;resizable=0;points=[];autosize=1;strokeColor=none;fillColor=none;" parent="1" vertex="1">
          <mxGeometry x="30" y="50" width="200" height="60" as="geometry" />
        </mxCell>
        <mxCell id="f4tCDMw2nMyjXB25puNK-2" value="&lt;div&gt;The context clues might augment which activities&lt;/div&gt;&lt;div&gt;&amp;nbsp;are &quot;not normal&quot; for the current time&lt;/div&gt;&lt;div&gt;&amp;nbsp;and place of the particular scene&lt;br&gt;Or even, if it&#39;s a place that no people should&lt;/div&gt;&lt;div&gt;even be in, it&#39;s even easier, as just detecting a human&lt;/div&gt;&lt;div&gt;there is &quot;suspicious&quot;&lt;br&gt;&lt;/div&gt;" style="text;html=1;align=center;verticalAlign=middle;resizable=0;points=[];autosize=1;strokeColor=none;fillColor=none;" parent="1" vertex="1">
          <mxGeometry x="680" y="150" width="310" height="100" as="geometry" />
        </mxCell>
      </root>
    </mxGraphModel>
  </diagram>
</mxfile>
